<svg version="1" xmlns="http://www.w3.org/2000/svg" width="666.667" height="666.667" viewBox="0 0 500.000000 500.000000"><path d="M314.4 72.4c-1.7.8-3.6 2.6-4.2 4.2-1 2.4-3.2 16.1-5.6 34.4-.3 1.9-.7 5.2-1 7.2-.3 2.1-.8 5.5-1.1 7.5-.3 2.1-1 6.5-1.5 9.8-.5 3.3-1.2 8.2-1.5 11-.4 2.7-.8 6.1-1 7.5-.2 1.4-.6 3.8-.9 5.5-1 6.5-2.6 17.2-3.1 21-.3 2.2-1 7.1-1.6 11-.5 3.8-1.2 8.8-1.5 11-.3 2.2-.9 6.2-1.4 9-.5 2.7-1.2 7.2-1.5 10-.3 2.7-1 7.5-1.5 10.5s-1.2 7.3-1.5 9.5c-.4 2.2-1 6.7-1.5 10s-1.2 8.2-1.5 11c-.4 2.7-.8 5.7-1 6.5-.2.8-.7 3.5-1 6-.3 2.5-.8 5.6-1 7-.3 1.4-.7 3.8-.9 5.5-.3 1.6-1.2 7.3-2 12.5s-1.7 11.3-2.1 13.5c-.3 2.3-.8 5.2-1 6.5-.3 1.4-.7 4.1-1 6.1-.2 1.9-1.1 7.5-2 12.5-.8 4.9-1.6 9.8-1.8 10.9-.2 1.1-1.2 6.4-2.2 11.8-2.2 11.6-1.6 14.4 3.6 17 6.4 3.1 11.8-.5 13.4-8.9 1.2-6.3 4.5-25.1 5.1-28.8.3-2.1.7-4.6.9-5.5.1-.9.6-3.6 1-6.1 1-6.6 1.4-9.3 1.9-11.5.4-2.1 2.4-15.5 3.2-21.5.9-6.5 1.6-9 2.5-9 .5 0 .9.4.9.8 0 1.4 10.8 7.3 16.2 8.8 6.7 1.9 18.7 1.9 25.5 0 2.9-.8 5.5-1.1 5.7-.8.3.6 5 20.8 6.2 26.7 1 5.2 1.6 7.6 7 30 4.1 16.8 15.2 46.8 18.3 49.5.3.3 1.3 1.8 2 3.3 2.4 4.5 11.7 14.2 16.9 17.6 15.8 10.1 34.3 8.8 52.7-3.9 8.2-5.6 12.5-10.6 12.5-14.5 0-4.7-3.5-8.6-8.3-9-3.2-.3-4.4.3-9.5 4.6-8.5 7.2-17.1 11.2-24.6 11.2-20.5.2-33.5-22.5-46.7-81.3-1.7-7.4-3.2-14.6-3.5-16-.3-1.4-1.8-7.9-3.3-14.5-1.6-6.6-2.9-12-2.8-12 .1 0 4.3-2.7 9.2-6 12.9-8.5 32.1-27.9 41.2-41.8 12.8-19.3 17.4-34.3 16.8-54.7-.4-15-2-22.3-7.1-31.4-11.5-20.6-31.5-26.9-61.4-19.2-.8.2-4.4 1.5-8 2.9-13.4 5-23.8 11.7-33.7 21.7-3.3 3.3-5.1 4.5-4.9 3.4.2-1.1.7-4.2 1-6.9.4-2.8.9-5.7 1.1-6.5.2-.8.6-3.8 1-6.5.3-2.8 1-7.7 1.5-11 1.3-8.9 1.8-12.5 2.6-18 .3-2.8.8-5.7.9-6.6.2-.9.6-4 1-7s.8-5.7 1-6c.2-.3.7-3.9 1-8.1.8-9-.2-11.3-5-13.4-4-1.6-3.3-1.6-7.1 0zm80.9 78.9c10.5 4.4 16.6 16.1 17.3 33.2.5 12.5-1.6 21.9-7.6 34-5.8 11.8-11.9 20.2-22.8 31.1-8.2 8.3-22.9 20-23.9 19.1-.3-.3-2-3.9-3.7-7.9-6-13.8-12.7-21.2-22.1-24.4-6.8-2.2-16-1.5-22.7 2-2.8 1.5-5.2 2.5-5.5 2.3-.6-.6 2.4-14.7 5-23.7 8.9-30.7 23.3-49.9 45.1-60.1 4.8-2.2 9.4-4.2 10.4-4.4.9-.3 4.2-1.1 7.2-1.9 7.9-2 17.5-1.8 23.3.7zm-65 104.6c3.2 2.8 8.8 13.4 10.2 19.3.6 2.4.3 2.7-3.1 3.7-5.4 1.5-17.3.7-21.8-1.4-2.3-1.1-4.4-3.1-5.4-5.1-2.3-5 0-11.8 5.4-15.9 5.6-4.3 10.2-4.5 14.7-.6zM213 81.1c-5.8 1-13.9 2.6-18 3.5-4.1 1-7.9 1.8-8.5 2-7.3 1.5-29.7 8.6-36 11.3-10.5 4.6-30 15.1-31.5 17.1-.3.3-1.4 1.3-2.6 2.1-9.3 6.4-21.2 19.7-25.9 28.9-6.8 13.4-9 28.9-5.9 42 5.7 24.3 26.8 43 48.6 43 9.4 0 22.1-5 27.5-10.8 4.3-4.6 2.6-11.3-3.4-13.8-3.4-1.5-3.7-1.4-11.9 2.7-7.6 3.8-8.9 4.1-13.9 3.6-14-1.4-26.5-14.4-29.5-30.5-4.2-23.3 12.9-46.9 45.5-62.7 9.5-4.6 25.9-11 30.5-12 .8-.2 4.1-1 7.2-2 3.1-.9 6.9-1.8 8.4-2.1 1.5-.3 3.1-.7 3.5-1 1.2-.7 1.6.6 2.4 7 .3 3.3 1.7 12.3 3.1 20 1.4 7.8 2.7 15.4 3 17.1.8 4.7 3.8 17.4 8.7 37 5.7 22.6 9.4 39.3 11.1 50 .2 1.1.6 3.3.9 5 4.4 21.9 5.2 55.3 1.8 72.1-9.6 46.9-32.5 72.6-73.1 82.1-10.5 2.4-14.7 2.8-29 2.8-10.8-.1-15.1-.5-21.3-2.3-38.2-10.8-62.1-45.9-61.1-89.7.1-5.5.3-10.5.4-11 .9-4.2-2.9-9.2-7.5-9.8-3.7-.5-8.4 2-9.7 5.3-1.6 3.8-1.7 27.7-.2 37.2 6.6 41.5 33.5 73.5 70.9 84.7 10.7 3.1 11.9 3.3 27.5 3.7 35.9.7 67.5-11 88.7-32.9 17.2-17.7 28.3-42 33.7-73.6 1.3-7.2 1.5-39.4.3-46.6-.3-1.7-.8-5.7-1.1-9-.6-5.4-4.7-30.2-6.1-36.5-.3-1.4-.7-3.6-1-5-.9-4.6-1.3-6.5-3.9-17-1.5-5.8-2.8-11.4-3.1-12.5-.2-1.1-1.1-4.7-2-8-2-7.3-1.9-6.8-4.5-18.5-1.9-8.3-3.4-16.3-5.5-27.5-.3-1.7-.7-4.8-1-7-.3-2.2-1.1-7.5-1.9-11.7-1.2-7.4-1-10.2 1-9.7 1.5.5 10.8-1.2 12.7-2.3 1-.5 2.5-2.5 3.3-4.4 1.3-3.1 1.3-3.9-.1-6.8-1.7-3.5-5.1-5.7-8.8-5.5-1.2.1-6.9.9-12.7 2z"/></svg>