<?xml version="1.0" encoding="utf-8"?>
<!-- Generator: Adobe Illustrator 24.3.0, SVG Export Plug-In . SVG Version: 6.00 Build 0)  -->
<svg version="1.1" id="Ebene_1" xmlns:serif="http://www.serif.com/"
	 xmlns="http://www.w3.org/2000/svg" xmlns:xlink="http://www.w3.org/1999/xlink" x="0px" y="0px" viewBox="0 0 210 100"
	 style="enable-background:new 0 0 210 100;" xml:space="preserve">
<style type="text/css">
	.st0{fill-rule:evenodd;clip-rule:evenodd;fill:#FFC435;fill-opacity:0.2;}
	.st1{opacity:0.64;}
	.st2{fill-rule:evenodd;clip-rule:evenodd;fill:#F28DFD;fill-opacity:0.77;}
	.st3{fill-rule:evenodd;clip-rule:evenodd;fill:#FFFAD9;}
	.st4{fill-rule:evenodd;clip-rule:evenodd;fill:#EFF2F9;}
	.st5{fill:#FED21C;}
	.st6{fill-rule:evenodd;clip-rule:evenodd;fill:#FED21C;}
	.st7{fill:#FF44F8;}
	.st8{fill-rule:evenodd;clip-rule:evenodd;fill:#FF97FF;}
	.st9{fill-rule:evenodd;clip-rule:evenodd;fill:#F28DFD;}
	.st10{fill:#FF67FF;}
	.st11{fill-rule:evenodd;clip-rule:evenodd;fill:#FF67FF;fill-opacity:0.46;}
	.st12{fill-rule:evenodd;clip-rule:evenodd;fill:#F28DFD;fill-opacity:0.53;}
	.st13{fill:#AFB5F0;}
	.st14{fill-rule:evenodd;clip-rule:evenodd;fill:#AFB5F0;}
	.st15{fill:#EFF2F9;}
	.st16{fill-rule:evenodd;clip-rule:evenodd;fill:#A12BB6;}
	.st17{fill-rule:evenodd;clip-rule:evenodd;fill:#974CCD;}
	.st18{fill-rule:evenodd;clip-rule:evenodd;fill:#771F98;}
	.st19{fill-rule:evenodd;clip-rule:evenodd;fill:#C0BFE6;}
	.st20{fill-rule:evenodd;clip-rule:evenodd;fill:#5736AE;}
	.st21{fill-rule:evenodd;clip-rule:evenodd;fill:#76A8FD;}
	.st22{fill-rule:evenodd;clip-rule:evenodd;fill:#432C82;}
	.st23{fill-rule:evenodd;clip-rule:evenodd;fill:#7E4DCD;}
	.st24{fill-rule:evenodd;clip-rule:evenodd;fill:#C664E9;}
	.st25{fill-rule:evenodd;clip-rule:evenodd;fill:#FF67FF;}
	.st26{fill-rule:evenodd;clip-rule:evenodd;fill:#C2F5FF;}
	.st27{fill-rule:evenodd;clip-rule:evenodd;fill:#26B6E3;}
	.st28{fill-rule:evenodd;clip-rule:evenodd;fill:#3B2D7E;}
	.st29{fill-rule:evenodd;clip-rule:evenodd;fill:#9C8ADD;}
	.st30{fill-rule:evenodd;clip-rule:evenodd;fill:#00023C;fill-opacity:0.18;}
	.st31{fill-rule:evenodd;clip-rule:evenodd;fill:#FF37B8;fill-opacity:0.5;}
	.st32{fill:#FFD0F6;}
	.st33{fill-rule:evenodd;clip-rule:evenodd;fill:#2A0952;}
	.st34{fill-rule:evenodd;clip-rule:evenodd;fill:#49358E;}
	.st35{fill-rule:evenodd;clip-rule:evenodd;fill:#9387BE;}
	.st36{fill-rule:evenodd;clip-rule:evenodd;fill:#C4B8EE;}
	.st37{fill-rule:evenodd;clip-rule:evenodd;fill:#B700FF;}
	.st38{fill:none;stroke:#2A0952;stroke-width:1.296296e-02;stroke-miterlimit:10;}
	.st39{opacity:0.9;fill-rule:evenodd;clip-rule:evenodd;fill:#FCFCFC;enable-background:new    ;}
	.st40{fill-rule:evenodd;clip-rule:evenodd;fill:#2D1D05;}
	.st41{fill-rule:evenodd;clip-rule:evenodd;fill:#472E0E;}
	.st42{fill-rule:evenodd;clip-rule:evenodd;fill:#FCFCFC;}
	.st43{fill-rule:evenodd;clip-rule:evenodd;fill:#6C5DE0;}
	.st44{fill-rule:evenodd;clip-rule:evenodd;fill:#00D2FB;}
	.st45{fill-rule:evenodd;clip-rule:evenodd;fill:#503890;}
	.st46{fill-rule:evenodd;clip-rule:evenodd;fill:#8A60E2;}
	.st47{fill-rule:evenodd;clip-rule:evenodd;fill:#FFB700;}
	.st48{fill-rule:evenodd;clip-rule:evenodd;fill:#EA9800;}
</style>
<g id="Master_x2F_Spot_Illustrations_x2F_Work_from_Home">
	<path id="Background" class="st0" d="M147.3,11.4L61.5,28.5c-1,0.1-1.4,1.3-0.6,2L110.8,83c0.6,0.5,1.4,0.3,1.7-0.3L148.4,13
		C148.8,12.2,148.2,11.3,147.3,11.4"/>
	<g id="Texture_x2F_Glitch" class="st1">
		<path id="Fill-37" class="st2" d="M83.8,16.1c1.1-1,2.8-0.8,3.7,0.3c1,1.1,0.8,2.8-0.3,3.7c-1.1,1-2.8,0.8-3.7-0.3
			C82.5,18.7,82.7,17,83.8,16.1"/>
		<path id="Fill-23" class="st3" d="M99.9,71.8c0,0.1,0,0.2-0.1,0.3c-0.1,0.1-0.2,0.2-0.3,0.2c-0.6,0.1-0.8,0.6-1,1s-0.5,0.5-0.7,0
			c-0.3-0.6-0.6-1-1.2-1.2c-0.3-0.1-0.3-0.5,0-0.7c0.6-0.2,1-0.6,1.2-1.2c0.2-0.4,0.5-0.4,0.7,0c0.2,0.5,0.4,0.9,1,1.1
			C99.7,71.4,99.9,71.5,99.9,71.8"/>
		<path id="Fill-13" class="st4" d="M105.3,78.5c-0.1-0.5-0.1-1-0.3-1.4c-0.5-1.1-1.4-1.4-2.5-1.3c-0.9,0.1-1.4,0.8-1.7,1.6
			c-0.2,0.5-0.3,0.6-0.7,0.3c-0.7-0.5-1.5-0.4-2.2,0.1c-0.8,0.6-1.1,1.4-1,2.4c0.1,0.4,0.1,0.8,0.2,1.1c-0.2,0.1-0.3,0-0.4,0
			c-0.7-0.2-1.4,0-1.8,0.5c-0.5,0.6-0.6,1.5-0.2,2.2c0.2,0.3,0.4,0.3,0.7,0.3h20.8c0.2,0,0.5,0.1,0.6-0.2c0.1-0.3,0-0.5-0.2-0.7
			c-0.4-0.4-0.9-0.6-1.4-0.7c-0.7-0.2-1.2-0.6-1.7-1.2c-0.6-0.9-1.4-1.5-2.4-1.3c-0.7,0.1-1.2,0.2-1.8-0.4c-0.2-0.3-0.8-0.4-1.2-0.1
			c-0.2,0.1-0.3,0.1-0.4-0.1C107.4,77.9,106.5,77.5,105.3,78.5"/>
		<path id="Triangle" class="st5" d="M64.5,31.6l-3,1.4c-0.6,0.3-0.7,1.2-0.2,1.6l2.7,2c0.6,0.4,1.4,0,1.5-0.7l0.3-3.4
			C65.9,31.8,65.2,31.3,64.5,31.6z M64.9,32.4C64.9,32.4,65,32.4,64.9,32.4l-0.3,3.5c0,0.1-0.1,0.1-0.1,0.1l-2.7-2v-0.1
			C61.9,33.8,64.9,32.4,64.9,32.4z"/>
		<g id="Decoration-13">
			<path id="Fill-39" class="st6" d="M73.3,75.2c0,0.4-0.4,0.8-0.8,0.8s-0.8-0.4-0.8-0.8s0.4-0.8,0.8-0.8
				C72.9,74.4,73.3,74.8,73.3,75.2"/>
			<path id="Fill-41" class="st6" d="M73.3,77.6c0,0.4-0.4,0.8-0.8,0.8s-0.8-0.4-0.8-0.8s0.4-0.8,0.8-0.8
				C72.9,76.8,73.3,77.2,73.3,77.6"/>
			<path id="Fill-43" class="st6" d="M73.3,79.9c0,0.4-0.4,0.8-0.8,0.8s-0.8-0.4-0.8-0.8s0.4-0.8,0.8-0.8S73.3,79.5,73.3,79.9"/>
		</g>
		<path id="Stroke-29" class="st7" d="M110.1,61.6l-2.4,0.1c-0.5,0-0.8,0.6-0.5,1l1.3,1.9c0.3,0.4,0.9,0.3,1.1-0.1l1.1-2
			C111,62.1,110.6,61.6,110.1,61.6z M107.8,62.3l2.4-0.1c0.1,0,0.1,0,0.1,0.1l-1.1,2h-0.1L107.8,62.3
			C107.7,62.4,107.7,62.3,107.8,62.3z"/>
		<path id="Fill-23_1_" class="st3" d="M107,55.7c0,0.1,0,0.2-0.1,0.3s-0.2,0.2-0.3,0.2c-0.6,0.1-0.8,0.6-1,1s-0.5,0.5-0.7,0
			c-0.3-0.6-0.6-1-1.2-1.2c-0.3-0.1-0.3-0.5,0-0.7c0.6-0.2,1-0.6,1.2-1.2c0.2-0.4,0.5-0.4,0.7,0c0.2,0.5,0.4,0.9,1,1.1
			C106.8,55.3,107,55.5,107,55.7"/>
		<path id="Fill-23_2_" class="st3" d="M141.9,43.2c0,0.1,0,0.2-0.1,0.3s-0.2,0.2-0.3,0.2c-0.6,0.1-0.8,0.6-1,1s-0.5,0.5-0.7,0
			c-0.3-0.6-0.6-1-1.2-1.2c-0.3-0.1-0.3-0.5,0-0.7c0.6-0.2,1-0.6,1.2-1.2c0.2-0.4,0.5-0.4,0.7,0c0.2,0.5,0.4,0.9,1,1.1
			C141.6,42.8,141.9,42.9,141.9,43.2"/>
		<path id="Fill-23_3_" class="st3" d="M67.7,63.3c0,0.1,0,0.2-0.1,0.3s-0.2,0.2-0.3,0.2c-0.6,0.1-0.8,0.6-1,1s-0.5,0.5-0.7,0
			c-0.3-0.6-0.6-1-1.2-1.2c-0.3-0.1-0.3-0.5,0-0.7c0.6-0.2,1-0.6,1.2-1.2c0.2-0.4,0.5-0.4,0.7,0c0.2,0.5,0.4,0.9,1,1.1
			C67.5,62.9,67.7,63,67.7,63.3"/>
		<path id="Fill-23_4_" class="st3" d="M90.1,23.5c0,0.1,0,0.2-0.1,0.3c-0.1,0.1-0.2,0.2-0.3,0.2c-0.6,0.1-0.8,0.6-1,1
			s-0.5,0.5-0.7,0c-0.3-0.6-0.6-1-1.2-1.2c-0.3-0.1-0.3-0.5,0-0.7c0.6-0.2,1-0.6,1.2-1.2c0.2-0.4,0.5-0.4,0.7,0
			c0.2,0.5,0.4,0.9,1,1.1C89.8,23.1,90,23.3,90.1,23.5"/>
		<path id="Fill-27" class="st8" d="M104.6,22.1c0,0.1,0,0.1-0.1,0.2s-0.2,0.1-0.2,0.2c-0.4,0.1-0.5,0.4-0.7,0.7
			c-0.1,0.3-0.4,0.3-0.5,0c-0.2-0.4-0.4-0.7-0.9-0.9c-0.2-0.1-0.2-0.4,0-0.5c0.4-0.2,0.7-0.5,0.9-0.9c0.1-0.3,0.4-0.3,0.5,0
			s0.3,0.6,0.7,0.8C104.4,21.8,104.6,21.9,104.6,22.1"/>
		<path id="Fill-27_1_" class="st8" d="M96.6,40.8c0,0.1,0,0.1-0.1,0.2c-0.1,0.1-0.2,0.1-0.2,0.2c-0.4,0.1-0.5,0.4-0.7,0.7
			c-0.1,0.3-0.4,0.3-0.5,0c-0.2-0.4-0.4-0.7-0.9-0.9c-0.2-0.1-0.2-0.4,0-0.5c0.4-0.2,0.7-0.5,0.9-0.9c0.1-0.3,0.4-0.3,0.5,0
			s0.3,0.6,0.7,0.8C96.4,40.6,96.5,40.7,96.6,40.8"/>
		<path id="Fill-27_2_" class="st8" d="M119.4,47.1c0,0.1,0,0.1-0.1,0.2c-0.1,0.1-0.2,0.1-0.2,0.2c-0.4,0.1-0.5,0.4-0.7,0.7
			c-0.1,0.3-0.4,0.3-0.5,0c-0.2-0.4-0.4-0.7-0.9-0.9c-0.2-0.1-0.2-0.4,0-0.5c0.4-0.2,0.7-0.5,0.9-0.9c0.1-0.3,0.4-0.3,0.5,0
			s0.3,0.6,0.7,0.8C119.2,46.8,119.3,46.9,119.4,47.1"/>
		<path id="Fill-37_1_" class="st9" d="M137.4,62.5c1.1-1,2.8-0.8,3.7,0.3c1,1.1,0.8,2.8-0.3,3.7c-1.1,1-2.8,0.8-3.7-0.3
			C136.1,65.2,136.3,63.5,137.4,62.5"/>
		<path id="Stroke-35" class="st10" d="M150.2,31.6c0.2-0.1,0.4-0.2,0.6,0l2,2c0.2,0.2,0.2,0.5,0,0.6c-0.2,0.2-0.4,0.2-0.6,0l0,0
			l-1.7-1.7l-2,1.8c-0.2,0.1-0.4,0.2-0.6,0l0,0l-1.9-1.7l-2.1,1.9c-0.2,0.1-0.4,0.1-0.6,0l0,0l-1.9-2c-0.2-0.2-0.2-0.5,0-0.6
			c0.2-0.2,0.4-0.2,0.6,0l0,0l1.6,1.7l2.1-1.8c0.2-0.1,0.4-0.1,0.6,0l0,0l1.9,1.7L150.2,31.6L150.2,31.6z"/>
		<g id="Group">
			<path id="Fill-39_1_" class="st8" d="M151.5,55.2c-0.4,0-0.8-0.4-0.8-0.8s0.4-0.8,0.8-0.8s0.8,0.4,0.8,0.8
				C152.3,54.9,152,55.2,151.5,55.2"/>
			<path id="Fill-41_1_" class="st8" d="M149.1,55.2c-0.4,0-0.8-0.4-0.8-0.8s0.4-0.8,0.8-0.8c0.4,0,0.8,0.4,0.8,0.8
				S149.5,55.2,149.1,55.2"/>
			<path id="Fill-43_1_" class="st8" d="M146.8,55.2c-0.4,0-0.8-0.4-0.8-0.8s0.4-0.8,0.8-0.8s0.8,0.4,0.8,0.8
				C147.6,54.9,147.2,55.2,146.8,55.2"/>
		</g>
		<path id="Fill-15" class="st11" d="M144.9,76.4c-0.1-0.5-0.1-1-0.3-1.5c-0.5-1.2-1.5-1.5-2.7-1.4c-1,0.1-1.5,0.8-1.8,1.7
			c-0.2,0.5-0.3,0.6-0.8,0.3c-0.8-0.6-1.6-0.5-2.4,0.1c-0.8,0.6-1.2,1.5-1,2.5c0.1,0.4,0.1,0.8,0.3,1.2c-0.2,0.1-0.3,0-0.4,0
			c-0.8-0.2-1.4,0-1.9,0.6c-0.5,0.7-0.6,1.6-0.2,2.3c0.2,0.4,0.5,0.3,0.8,0.3h9.8c4.1,0,8.2,0,12.2,0c0.2,0,0.5,0.1,0.6-0.2
			c0.1-0.3,0-0.6-0.2-0.8c-0.4-0.4-0.9-0.6-1.5-0.8c-0.8-0.2-1.3-0.6-1.8-1.3c-0.6-0.9-1.4-1.6-2.6-1.4c-0.7,0.1-1.3,0.3-1.9-0.5
			c-0.2-0.3-0.8-0.4-1.3-0.1c-0.2,0.1-0.3,0.1-0.4-0.2C147,75.7,146.1,75.4,144.9,76.4"/>
		<path id="Fill-31" class="st12" d="M136.2,12.3c3.1,0,5.6,2.5,5.6,5.6s-2.5,5.6-5.6,5.6s-5.6-2.5-5.6-5.6
			C130.7,14.8,133.1,12.3,136.2,12.3"/>
	</g>
	<g id="Window-2">
		<path id="Shape" class="st13" d="M143.4,13.7c0.7,0,1.2,0.5,1.3,1.2v22c0,0.7-0.5,1.2-1.2,1.3h-0.1h-29.3c-0.7,0-1.2-0.5-1.3-1.2
			v-0.1V15c0-0.7,0.5-1.2,1.2-1.3H143.4L143.4,13.7L143.4,13.7z M143.4,14.1h-29.3c-0.5,0-0.8,0.4-0.9,0.8v22c0,0.5,0.4,0.8,0.8,0.9
			h29.4c0.5,0,0.8-0.4,0.9-0.8v-0.1V15C144.3,14.5,143.9,14.1,143.4,14.1C143.5,14.1,143.4,14.1,143.4,14.1z"/>
		<path id="Fill-26" class="st14" d="M118.5,18c0,0.9-0.8,1.7-1.7,1.7c-0.9,0-1.7-0.8-1.7-1.7s0.8-1.7,1.7-1.7
			C117.7,16.2,118.5,17,118.5,18"/>
		<path id="Fill-28" class="st14" d="M119.3,16.9h15.1v-0.7h-15.1V16.9z"/>
		<path id="Fill-30" class="st14" d="M119.3,18.1h8.8v-0.7h-8.8C119.3,17.4,119.3,18.1,119.3,18.1z"/>
		<path id="Fill-31_1_" class="st14" d="M115.1,35.2H132V20.8h-16.9C115.1,20.8,115.1,35.2,115.1,35.2z"/>
		<path id="Fill-32" class="st14" d="M132.8,27.5h9.2v-6.8h-9.2V27.5z"/>
		<path id="Fill-33" class="st14" d="M132.8,35.2h4.4v-6.7h-4.4V35.2z"/>
		<path id="Fill-34" class="st14" d="M137.6,35.2h4.4v-6.7h-4.4V35.2z"/>
		<path id="Fill-35" class="st14" d="M116,36.2c0,0.3-0.2,0.5-0.5,0.5s-0.5-0.2-0.5-0.5s0.2-0.5,0.5-0.5S116,35.9,116,36.2"/>
		<path id="Fill-36" class="st14" d="M117.6,36.2c0,0.3-0.2,0.5-0.5,0.5s-0.5-0.2-0.5-0.5s0.2-0.5,0.5-0.5S117.6,35.9,117.6,36.2"/>
		<path id="Fill-37_2_" class="st14" d="M119.1,36.2c0,0.3-0.2,0.5-0.5,0.5s-0.5-0.2-0.5-0.5s0.2-0.5,0.5-0.5S119.1,35.9,119.1,36.2
			"/>
		<path id="Fill-38" class="st14" d="M149.3,12.7c0,3.9-3.2,7.1-7.1,7.1s-7.1-3.2-7.1-7.1s3.2-7.1,7.1-7.1
			C146.1,5.6,149.3,8.8,149.3,12.7"/>
		<path id="Path" class="st15" d="M144.9,9.2l1.9,1.6l-4.7,5.6l-4.3-3.4l1.5-1.9l2.5,1.9C141.7,13,144.9,9.2,144.9,9.2z"/>
	</g>
	<g id="Chair">
		<path id="Fill-9" class="st16" d="M80.1,92.2c-0.4,0-0.7-0.3-0.7-0.6l-3-23.4H63.8l-3,23.4c-0.1,0.4-0.4,0.7-0.8,0.6
			c-0.4-0.1-0.7-0.4-0.6-0.8l3-24c0-0.4,0.4-0.6,0.7-0.6h13.8c0.4,0,0.7,0.3,0.7,0.6l3.1,24C80.8,91.8,80.5,92.2,80.1,92.2
			L80.1,92.2"/>
		<path id="Fill-1" class="st17" d="M89.2,92.2c-0.4,0-0.7-0.3-0.7-0.6l-3-23.4H72.9l-3,23.4c-0.1,0.4-0.4,0.7-0.8,0.6
			s-0.7-0.4-0.6-0.8l3-24c0-0.4,0.4-0.6,0.7-0.6H86c0.4,0,0.7,0.3,0.7,0.6l3.1,24C90,91.7,89.7,92.1,89.2,92.2L89.2,92.2"/>
		<path id="Fill-4" class="st18" d="M66.5,43.8H71c1.5,0,3,0,4.4,0.5s2.7,1.5,3.2,2.9c0.3,1.1,0.2,2.2,0.2,3.3c0.1,1,0.4,2,0.6,3
			c0.4,2.2,1,4.4,1.8,6.5c0.6,1.6,1.4,3.2,2.7,4.4c0.9,0.8,2.1,1.3,2.4,2.4c0,0.1,0.1,0.3,0,0.4c-0.5,0.5-2.1,0.5-2.7,0.5
			c-3.6-0.1-7.2-0.2-10.8-0.2c-1.2,0-2.3-0.1-3.5-0.4c-1.7-0.4-4.4-0.3-5.8-1.3c-0.4-0.3-0.9-0.6-1.2-1c-1.3-1.6-0.2-4.7-0.3-6.6
			c-0.1-3.3-0.1-6.5,0.1-9.8c0.1-0.8,0.2-1.7,0.5-2.5s0.9-1.5,1.6-1.8c0.6-0.3,1.3-0.3,2-0.3L66.5,43.8L66.5,43.8z"/>
		<path id="Fill-7" class="st16" d="M65.9,67.3c-2.7,0-5.5-1.5-5.9-4.1c-0.5-3.5-0.7-6.9-0.5-10.1c0.2-3.5,1.9-6.8,4.6-9
			c0,0,1.7,7.3-0.4,17.5c-1.2,6.9,8.5,3.7,13.6,4.6c2.7,0.5,2.8,1.5,2.8,1.5L65.9,67.3z"/>
	</g>
	<g id="Master_x2F_Character_x2F_Sitting">
		<g id="Sitting_x2F_Colorful_Pants_1">
			<g id="Group-87">
				<path id="Fill-1_1_" class="st19" d="M91.8,84.4l0.2-0.8l0.4-1.6l-3.3-0.8l-0.2,1.7l-0.1,0.8L88.6,86l2.7,0.6
					C91.3,86.6,91.8,84.4,91.8,84.4z"/>
				<path id="Fill-2" class="st19" d="M98,78.4l-0.5-1.6l-3.1,0.9l0.7,1.6l0.3,0.7l1,2.2l2.5-0.7l-0.7-2.2
					C98.3,79.2,98,78.4,98,78.4z"/>
				<g id="Group-13">
					<path id="Fill-3" class="st20" d="M88.3,84.1c0,0,0-7.1,0.1-9.4c0.1-1.4,0.3-2.8,0.5-4.2c0.1-0.6,0.8-3.1,0.3-3.5
						c-0.4-0.3-12.2,0.3-14-0.1c-0.1,0-2.3-4-6.7-11.9h7.4c0,0,5.7,3.2,6.6,3.4c8.5,1.9,10.9,4.5,11.4,4.9c0.6,0.6,0.8,2.1,0.7,3.9
						c-0.2,5.6-2.8,17.6-2.8,17.6L88.3,84.1L88.3,84.1z"/>
					<path id="Fill-5" class="st21" d="M96.1,92l-9.3-2c0-0.1,0-0.3,0-0.6c0.1-0.8,0.6-2.1,0.9-2.9c0-0.1,0.1-0.2,0.1-0.3
						c0-0.1,0.1-0.2,0.1-0.3c0.1-0.7,0.7-0.4,0.7-0.4c0.8,1.2,2.1-0.1,2.6,0.5c0,0,0,0,0.1,0.1c0,0.1,0.1,0.1,0.2,0.3
						c0.1,0.2,0.3,0.4,0.6,0.8c0.6,0.9,1.8,1.6,2.8,2.3c0.1,0.1,0.2,0.2,0.3,0.3c0.1,0.1,0.2,0.1,0.2,0.2c0.8,0.7,1,1.2,1,1.6
						C96.2,91.8,96.1,92,96.1,92"/>
					<path id="Fill-7_1_" class="st22" d="M95.3,89.9C95,90,94.4,90.3,94,90.2c0,0,0,0-0.1,0c-0.3-0.1-1.3-0.9-2.1-1.6
						c-0.5-0.4-0.9-0.8-1.2-1.1C90.1,87,90,86.8,90,86.7c0-0.4,0.6-0.5,1.1-0.6c0,0.1,0.1,0.1,0.2,0.3c-0.6,0-1,0.2-1,0.3
						c0,0.1,0.5,0.7,1.7,1.7c0.9,0.8,1.8,1.5,2,1.5c0.3,0.1,0.8-0.1,1.1-0.3C95.1,89.7,95.2,89.8,95.3,89.9"/>
					<path id="Fill-9_1_" class="st23" d="M96.1,92l-9.3-2c0-0.1,0-0.3,0-0.6l9.5,2C96.2,91.8,96.1,92,96.1,92"/>
					<path id="Fill-11" class="st22" d="M87.7,90.2l-0.3-0.1c0.3-0.3,0.7-0.7,0.8-1.5c0.1-1-0.3-1.7-0.6-2.2c0-0.1,0.1-0.2,0.1-0.3
						c0.4,0.4,0.9,1.3,0.7,2.5C88.3,89.4,88,89.9,87.7,90.2"/>
				</g>
				<g id="Group-59">
					<g id="Group-16">
						<path id="Fill-14" class="st6" d="M96.7,84c-1.4-0.1-3.2-1.4-3.6-2.7c-0.1-0.3-0.2-0.6,0.1-0.8c0.3-0.3,0.7-0.2,1,0
							c1,0.7,1.9,1.4,3,1.8c0.5,0.2,0.7,0.7,0.5,1.2C97.5,84,97,84,96.7,84"/>
					</g>
					<g id="Group-19">
						<path id="Fill-17" class="st24" d="M93.8,70.8c0.2-0.9,0.9-1.3,1.8-1.4c1.1-0.1,1.8,0.5,2,1.6c0.1,0.5,0.1,1,0,1.4
							C97.5,72.7,97.3,73,97,73c-0.5,0-0.7-0.5-0.8-0.9c-0.2-0.7-0.5-1-1.1-0.5c-0.2,0.2-0.5,0.2-0.7,0
							C93.9,71.5,93.8,71.3,93.8,70.8"/>
					</g>
					<g id="Group-22">
						<path id="Fill-20" class="st24" d="M98,78.1c-0.5,0.9-0.2,1.8,0,2.7c0.1,0.4-0.2,0.7-0.5,0.8c-0.3,0.1-0.5,0.1-0.7-0.1
							c-0.3-0.2-0.2-0.5-0.1-0.8c0-0.2,0-0.5-0.1-0.7c-0.3-0.6-0.2-1.1,0.2-1.6c0.1-0.1,0.1-0.3,0.1-0.5c0-0.4-0.3-1,0.3-1.1
							C97.9,76.8,97.9,77.5,98,78.1"/>
					</g>
					<g id="Group-25">
						<path id="Fill-23_5_" class="st25" d="M95.3,75.4c-0.3-0.1-0.7-0.2-1.1-0.3c-0.3-0.1-0.4-0.3-0.4-0.6c0.1-0.3,0.4-0.4,0.6-0.4
							c0.6,0,1.3,0,1.9-0.4c0.3-0.2,0.7-0.1,1,0.2c0.2,0.2,0.2,0.5,0.1,0.7c-0.2,0.5-0.7,0.7-1.2,0.8C95.9,75.4,95.7,75.4,95.3,75.4
							"/>
					</g>
					<g id="Group-28">
						<path id="Fill-26_1_" class="st25" d="M93.9,77.8c0.1-0.1,0.2-0.3,0.4-0.4c0.4-0.1,0.6,0.2,0.8,0.5c0.4,0.7,0.8,1.5,1.1,2.3
							c0.1,0.2,0.2,0.5,0,0.7c-0.3,0.3-0.5,0-0.7-0.1C94.4,80.1,94.1,79,93.9,77.8"/>
					</g>
					<g id="Group-31">
						<path id="Fill-29" class="st26" d="M94.7,75.7c1.3,0.1,2.1,0.9,2,2c0,0.2-0.1,0.5-0.4,0.5c-0.2,0.1-0.4-0.1-0.5-0.3
							c-0.4-0.6-0.7-1.2-1.6-1c-0.3,0.1-0.6-0.1-0.6-0.5C93.7,75.6,94.3,75.7,94.7,75.7"/>
					</g>
					<g id="Group-34">
						<path id="Fill-32_1_" class="st27" d="M91.7,78.2c0.1-0.2,0-0.5,0.4-0.6c1.3-0.2,1.8,0.6,1.8,1.8c0,0.2-0.1,0.2-0.3,0.3
							C91.9,80.6,91.9,79.3,91.7,78.2"/>
					</g>
					<g id="Group-37">
						<path id="Fill-35_1_" class="st26" d="M95.8,73c0,0.4-0.2,0.6-0.6,0.6c-0.5,0-0.8-0.3-0.8-0.8c0-0.4,0.3-0.7,0.7-0.7
							C95.6,72.2,95.7,72.6,95.8,73"/>
					</g>
					<g id="Group-40">
						<path id="Fill-38_2_" class="st6" d="M97.4,68.8c0.4,0.1,0.8,0,0.7,0.5c0,0.3-0.2,0.7-0.5,0.6c-0.3,0-0.7-0.3-0.7-0.7
							C96.8,68.8,97.2,68.7,97.4,68.8"/>
					</g>
					<g id="Group-43">
						<path id="Fill-41_3_" class="st9" d="M97.1,76.5c-0.4,0-0.5-0.3-0.5-0.7c0-0.4,0.3-0.5,0.6-0.5c0.3,0,0.5,0.2,0.5,0.5
							C97.6,76.2,97.5,76.5,97.1,76.5"/>
					</g>
					<g id="Group-46">
						<path id="Fill-44_1_" class="st9" d="M92.8,81.9c-0.4,0.9,0.1,1.8,0.4,2.7c0.1,0.4-0.1,0.7-0.4,0.9c-0.2,0.2-0.5,0.2-0.7,0
							c-0.3-0.2-0.2-0.4-0.2-0.7c0-0.2-0.1-0.5-0.2-0.7c-0.4-0.5-0.4-1,0-1.6c0.1-0.1,0.1-0.4,0.1-0.5c0-0.4-0.5-1,0.1-1.1
							C92.5,80.7,92.6,81.4,92.8,81.9"/>
					</g>
					<path id="Fill-47_1_" class="st25" d="M91.3,80.6c-0.4,0-0.6-0.2-0.6-0.6c-0.1-0.4,0.2-0.6,0.5-0.6c0.3-0.1,0.5,0.1,0.5,0.5
						C91.7,80.2,91.6,80.5,91.3,80.6"/>
					<path id="Fill-50" class="st25" d="M90.4,77.1c0.1,0.3,0.2,0.7,0.6,0.9c-0.4,0.2-0.5,0.5-0.6,0.9c-0.1-0.4-0.3-0.6-0.6-0.8
						C90.1,77.8,90.2,77.5,90.4,77.1"/>
					<path id="Fill-53" class="st6" d="M90,83.8c-0.2-0.6-0.5-1-1-1.3c0.5-0.3,0.8-0.8,1-1.5c0.2,0.6,0.4,1.2,1,1.5
						C90.5,82.7,90.3,83.2,90,83.8"/>
					<path id="Fill-56" class="st6" d="M89.8,79.7L89.8,79.7c-0.4,0-0.4,0-0.3,0.4c0,0.1,0.1,0.2,0.1,0.3c0,0.1,0,0.2,0,0.2
						c-0.1,0-0.1-0.1-0.1-0.1c-0.1-0.1-0.1-0.2-0.2-0.4s-0.1-0.1-0.2,0s-0.2,0.2-0.3,0.3c0,0-0.1,0.1-0.1,0v-0.1
						c0.1-0.1,0.2-0.2,0.2-0.3c0.1-0.2,0.1-0.2-0.1-0.2c-0.1,0-0.2,0-0.3,0c0,0-0.1,0-0.1-0.1s0-0.1,0.1-0.1s0.3,0,0.4,0
						s0.1-0.1,0.1-0.2s0-0.3-0.1-0.4c0-0.1-0.1-0.2,0-0.2s0.1,0.1,0.2,0.1c0,0.1,0.1,0.2,0.1,0.3c0.1,0.2,0.1,0.2,0.2,0
						c0.1-0.1,0.1-0.2,0.2-0.3c0-0.1,0.1-0.2,0.2-0.1s0,0.1,0,0.2c-0.1,0.1-0.1,0.2-0.2,0.3c-0.1,0.1,0,0.2,0.1,0.2s0.2,0,0.3,0
						c0.1,0,0.1,0,0.1,0.1S90,79.7,90,79.7C90,79.7,89.9,79.7,89.8,79.7L89.8,79.7z"/>
				</g>
				<g id="Group-73">
					<g id="shoe">
						<g id="Group-62">
							<path id="Fill-60" class="st21" d="M105.7,83.9l-9.2,2.6c-0.1-0.1-0.2-0.3-0.3-0.5c-0.3-0.8-0.4-2.1-0.5-3c0-0.1,0-0.2,0-0.3
								c0-0.1,0-0.3-0.1-0.3c-0.2-0.7,0.4-0.7,0.4-0.7c1.2,0.7,1.9-1,2.6-0.7c0,0,0,0,0.1,0s0.2,0.1,0.3,0.1
								c0.2,0.1,0.5,0.2,0.8,0.4c0.9,0.5,2.3,0.6,3.4,0.7c0.1,0,0.3,0,0.4,0.1c0.1,0,0.2,0,0.3,0.1c1,0.2,1.4,0.6,1.5,0.9
								C105.8,83.7,105.7,83.9,105.7,83.9"/>
						</g>
						<path id="Fill-63" class="st28" d="M104.1,82.4c-0.2,0.3-0.6,0.8-1,0.9c0,0,0,0-0.1,0c-0.3,0.1-1.5-0.2-2.6-0.4
							c-0.6-0.1-1.1-0.3-1.5-0.4c-0.6-0.2-0.8-0.3-0.8-0.4c-0.2-0.4,0.4-0.8,0.7-1c0.1,0,0.2,0.1,0.3,0.1c-0.5,0.3-0.9,0.6-0.8,0.8
							c0.1,0.1,0.7,0.4,2.2,0.7c1.1,0.3,2.2,0.5,2.4,0.4c0.3-0.1,0.6-0.4,0.9-0.7C103.9,82.4,104,82.4,104.1,82.4"/>
						<g id="Group-67">
							<path id="Fill-65" class="st23" d="M105.7,83.9l-9.2,2.6c-0.1-0.1-0.2-0.3-0.3-0.5l9.4-2.7C105.8,83.7,105.7,83.9,105.7,83.9
								"/>
						</g>
						<path id="Fill-68" class="st28" d="M97.2,86.4c0.2-0.4,0.3-1,0.1-1.7c-0.3-0.9-1-1.4-1.5-1.6c0-0.1,0-0.2,0-0.3
							c0.5,0.2,1.4,0.7,1.7,1.8c0.2,0.7,0.1,1.2,0,1.7L97.2,86.4z"/>
					</g>
					<path id="Fill-70" class="st23" d="M95.3,80.8c0,0-3-6.6-3.9-8.7S89,64.7,89,64.7s-5.1,1.8-10.6,2.1
						c-9.5,0.6-10.3,0.4-10.8-2.5c-0.4-2.3,0.5-6.5,0.5-6.5l7.4-0.6c0,0,10.5,1.2,13.7,1.7c0.8,0.1,1.5,0.3,2.1,0.5
						c0.8,0.2,1.6,1.5,2.3,3.2c2.2,5.1,5,17.3,5,17.3L95.3,80.8z"/>
				</g>
				<g id="Group-86">
					<g id="Group-76">
						<path id="Fill-74" class="st6" d="M93.2,72.6c0.2-0.4,0.3-0.7,0.7-0.5c0.3,0.2,0.5,0.5,0.3,0.8s-0.5,0.6-0.9,0.4
							C93,73.1,93.1,72.7,93.2,72.6"/>
					</g>
					<g id="Group-79">
						<path id="Fill-77" class="st9" d="M93.6,74.5c-0.2,0.4-0.5,0.3-0.8,0.2c-0.3-0.2-0.4-0.5-0.2-0.8c0.1-0.3,0.4-0.4,0.7-0.2
							C93.5,73.9,93.7,74.1,93.6,74.5"/>
					</g>
					<g id="Group-82">
						<path id="Fill-80" class="st6" d="M96.6,71.1L96.6,71.1c-0.7,0-0.7,0.1-0.5,0.6c0.1,0.1,0.1,0.3,0.2,0.5
							c0,0.1,0.1,0.3-0.1,0.3c-0.1,0-0.2-0.1-0.2-0.2c-0.1-0.2-0.2-0.4-0.3-0.6c-0.1-0.2-0.2-0.2-0.4,0c-0.1,0.2-0.3,0.4-0.5,0.6
							c-0.1,0-0.1,0.1-0.2,0s-0.1-0.1,0-0.2c0.1-0.2,0.3-0.4,0.4-0.5c0.2-0.3,0.1-0.4-0.2-0.4c-0.2,0-0.3,0-0.5-0.1
							c-0.1,0-0.2,0-0.1-0.1s0.1-0.1,0.2-0.1c0.2,0,0.5,0,0.7,0s0.3-0.1,0.2-0.3c-0.1-0.2-0.2-0.4-0.2-0.6c0-0.1-0.1-0.3,0-0.4
							c0.2-0.1,0.2,0.1,0.3,0.2c0.1,0.1,0.1,0.3,0.2,0.5c0.1,0.3,0.2,0.4,0.4,0.1c0.1-0.2,0.3-0.4,0.4-0.5s0.2-0.3,0.3-0.1
							c0.1,0.1,0.1,0.3,0,0.4c-0.1,0.2-0.2,0.3-0.4,0.5C96.2,70.9,96.2,71,96.6,71.1C96.7,71,96.8,71,97,71c0.1,0,0.2,0,0.2,0.2
							c0,0.1-0.1,0.2-0.2,0.2C96.8,71.2,96.7,71.1,96.6,71.1L96.6,71.1L96.6,71.1z"/>
					</g>
					<g id="Group-85">
						<path id="Fill-83" class="st25" d="M93.1,75.9c0.2-0.1,0.4-0.1,0.6-0.1c0.6,0,1.1-0.1,1.7-0.1c0.1,0,0.2,0,0.2-0.1
							s-0.1-0.1-0.1-0.2c-0.4-0.5-0.7-0.9-1.1-1.4c-0.1-0.1-0.1-0.2-0.2-0.3c0.2,0,0.3,0.1,0.5,0.1c0.5,0.2,0.9,0.5,1.4,0.8
							c0.2,0.1,0.3,0.1,0.3-0.1c0.1-0.7,0.3-1.3,0.6-2c0-0.1,0-0.2,0.1-0.2c0.1,0.1,0.1,0.2,0.1,0.2c0,0.7,0,1.4,0.1,2.1
							c0,0.2,0.1,0.3,0.3,0.2c0.6-0.3,1.2-0.5,1.8-0.8c0.1-0.1,0.2-0.1,0.5-0.1c-0.2,0.2-0.4,0.4-0.6,0.5c-0.4,0.3-0.8,0.7-1.2,1
							c-0.2,0.1-0.2,0.2,0,0.3c0.6,0.3,1.1,0.6,1.7,0.9c0.1,0,0.2,0.1,0.2,0.2c-0.1,0.1-0.2,0-0.4,0c-0.6-0.1-1.1-0.1-1.7-0.2
							c-0.2,0-0.3,0-0.3,0.3c0,0.8,0,1.5,0,2.3c0,0.1,0,0.2-0.1,0.2c-0.1-0.2-0.2-0.4-0.2-0.6c-0.2-0.5-0.3-1-0.4-1.6
							c-0.1-0.2-0.1-0.2-0.3-0.1c-0.5,0.5-1,1-1.4,1.6l-0.1,0.1c-0.1-0.3,0.1-0.5,0.2-0.7c0.2-0.5,0.4-0.9,0.6-1.4
							c0.1-0.2,0.1-0.2-0.1-0.3c-0.7-0.2-1.3-0.4-2-0.6C93.3,76,93.2,76.1,93.1,75.9"/>
					</g>
				</g>
			</g>
			<path id="Path-2" class="st23" d="M68,58.2l0.5-3.4l8.7,0.1l4,3.3l-6.3,0.4L68,58.2z"/>
		</g>
		<g id="Head_x2F_Short_Hair_Pink">
			<path id="Fill-1_2_" class="st29" d="M78.8,25.4c0-0.2-0.2-0.3-0.3-0.5c-0.6-0.5-1.5-0.6-2-1.2c-0.2-0.2-0.3-0.4-0.5-0.6
				s-0.6-0.4-0.9-0.5c-2.2-0.8-6.3,1.1-6.1,3.7c0,0.5,0.2,1,0.3,1.5c0,0.7-0.2,1.4-0.1,2c0.1,0.3,0.2,0.7,0.4,1
				c0.3,0.6,1.1,1.8,1.8,2.1c0.1,0,0.1,0,0.2,0s0.1-0.1,0.1-0.1c0.3-0.9-0.2-1.8-0.4-2.7c-0.2-0.7-0.2-1.3,0.1-2
				c0.3-0.6,0.3-1,0.4-1.7c0.1-1.2,2.5-1.4,3-0.9c0.8,0.6,1.2,0.3,1.7,0.3c0.3,0,0.5,0.3,0.7,0.5c-0.1,0,0.2,0.2,0.2,0.2L77.3,29
				c1.1-0.8,0.5-2.6,0.5-2.6C78.2,26.2,78.9,25.9,78.8,25.4z"/>
			<g id="Group-24">
				<path id="Fill-3_1_" class="st19" d="M75,33.5l-0.1,3.1c0,1.1-0.7,1.7-1.8,1.6c-0.9,0-1.8-0.5-1.9-1.5l0.4-5L75,33.5z"/>
				<path id="Fill-6" class="st30" d="M75,35c-2.2,0-3.6-2.6-3.6-2.6l3.7,0.8C75,33.2,75,35,75,35z"/>
				<path id="Fill-16" class="st19" d="M74,33.6c1.8,0,3.4-1.4,3.4-3l0.1-3.5c0.1-1.9-1.1-3.5-3-3.6s-4.2,1.3-4.3,3.2l-0.1,2.9
					C70.1,31.7,71.8,33.4,74,33.6"/>
				<path id="Fill-18" class="st19" d="M68.5,29.2c-0.1,0.8,0.5,1.5,1.3,1.5c0.8,0.1,1.5-0.5,1.5-1.3c0.1-0.8-0.5-1.5-1.3-1.5
					C69.2,27.8,68.5,28.4,68.5,29.2"/>
				<path id="Fill-20_1_" class="st30" d="M70.4,29.7c0,0,0.1-1-0.9-0.9"/>
			</g>
			<path id="Fill-17_1_" class="st29" d="M77.9,27.2c-0.6,0.4-1.5,0.1-2.2-0.2c-0.8-0.4-1.7-0.9-2.5-1.4c0.1,0.3,0.3,0.8,0.1,1.1
				c-0.2,0.3-0.7,0.3-1,0.3s-0.6,0.1-0.7,0.4c0,0.1,0,0.3,0,0.4s-0.1,0.3-0.2,0.3s-0.2,0.1-0.3,0.1c-0.2,0.2,0,0.6,0,0.9
				c0,0.2,0,0.5-0.2,0.7c0-0.2-0.2-0.2-0.3-0.4c-0.1-0.1-0.1-0.2-0.2-0.4c-0.1-0.4-0.2-0.7-0.3-1.1c-0.1-0.3-0.2-0.5-0.4-0.8
				c-0.8-1.4-0.1-2.9,1.1-3.7c0.8-0.6,1.9-0.9,2.9-1c0.7-0.1,1.4-0.1,1.9,0.2c0.4,0.2,0.7,0.5,1,0.9c0.4,0.5,0.8,0.9,1.2,1.4
				c0.3,0.3,0.6,0.6,0.7,1s0.1,0.9-0.2,1.2C78.3,27.2,78,27.3,77.9,27.2"/>
		</g>
		<g id="Group_1_">
			<path id="Fill-227" class="st31" d="M73.3,30.9c-0.1,0.1-0.3,0.2-0.5,0.3c-0.2,0-0.4,0-0.6,0c-0.1,0-0.3-0.1-0.4-0.2
				c-0.2-0.2-0.2-0.5-0.1-0.7c0-0.1,0.1-0.3,0.2-0.3c0.2-0.1,0.4-0.1,0.6-0.1S72.8,30,73,30C73.3,30,73.5,30.5,73.3,30.9
				C73.3,30.8,73.3,30.8,73.3,30.9"/>
			<path id="Stroke-229" class="st32" d="M72.2,30C72.2,30,72.3,29.9,72.2,30c0.1,0,0.2,0.1,0.1,0.1l0,0L72,30.5c0,0-0.1,0.1-0.1,0
				c0,0-0.1-0.1,0-0.1l0,0L72.2,30z"/>
			<path id="Stroke-231" class="st32" d="M72.9,30.2L72.9,30.2l0.1,0.1v0.5c0,0.1-0.1,0.1-0.1,0.1s-0.1,0-0.1-0.1l0,0v-0.5
				C72.8,30.2,72.8,30.2,72.9,30.2z"/>
			<path id="Stroke-233" class="st32" d="M72.5,30.1C72.5,30.1,72.6,30,72.5,30.1l0.2,0.1l0,0l-0.2,0.5c0,0-0.1,0.1-0.1,0l-0.1-0.1
				l0,0L72.5,30.1z"/>
			<path id="Fill-235" class="st31" d="M76,31.2c0.1,0.1,0.2,0.2,0.4,0.3c0.2,0,0.4,0,0.5,0s0.2-0.1,0.3-0.2
				c0.1-0.1,0.1-0.4,0.1-0.6c0-0.1-0.1-0.2-0.2-0.3c-0.1-0.1-0.3-0.1-0.5-0.1c-0.1,0-0.3,0.1-0.4,0.1C76,30.6,75.9,30.9,76,31.2
				L76,31.2"/>
			<path id="Stroke-237" class="st32" d="M76.8,30.5L76.8,30.5L76.8,30.5l0.3,0.3v0.1H77l0,0l-0.2-0.3
				C76.8,30.6,76.8,30.5,76.8,30.5z"/>
			<path id="Stroke-239" class="st32" d="M76.5,30.7c0,0,0.1,0,0.1,0.1l0,0v0.4c0,0.1,0,0.1-0.1,0.1c0,0-0.1,0-0.1-0.1l0,0v-0.4
				C76.4,30.7,76.4,30.7,76.5,30.7z"/>
			<path id="Stroke-241" class="st32" d="M76.6,30.6L76.6,30.6L76.6,30.6l0.3,0.4v0.1h-0.1l0,0l-0.2-0.4
				C76.5,30.7,76.6,30.6,76.6,30.6z"/>
			<path id="Fill-243" class="st33" d="M74.9,32.1L74.9,32.1c0.1,0,0.2,0,0.2-0.1c0-0.1-0.1-0.1-0.1-0.1c-0.4,0-0.6-0.1-0.9-0.4
				c-0.1,0-0.1-0.2-0.2-0.1s0.1,0.1,0.1,0.2l0.1,0.1C74.3,31.9,74.5,32.1,74.9,32.1"/>
			<path id="Fill-245" class="st31" d="M74.9,32.1c-0.3,0-0.6-0.2-0.9-0.4c0,0.1,0,0.2,0,0.3c0.1,0.2,0.2,0.3,0.4,0.3
				C74.7,32.3,74.8,32.2,74.9,32.1"/>
			<path id="Fill-247" class="st31" d="M74,31.5c0.2,0.3,0.5,0.4,0.9,0.4c0-0.2-0.1-0.3-0.3-0.4C74.4,31.5,74.2,31.4,74,31.5"/>
			<path id="Fill-249" class="st33" d="M75.7,29.3L75.7,29.3c0.2-0.2,0.4-0.2,0.5-0.2c0.2,0,0.4,0,0.6,0.1c0.1,0,0.2,0.1,0.2,0.2
				c0.1,0.1,0,0.2-0.1,0.2c-0.2,0-0.3-0.2-0.5-0.3c-0.2,0-0.4,0.1-0.5,0.3l-0.1,0.1c-0.1,0.1-0.2,0-0.2-0.1
				C75.5,29.5,75.6,29.4,75.7,29.3"/>
			<path id="Fill-251" class="st30" d="M75.1,29.8c0-0.1,0-0.2-0.1-0.4c0-0.1-0.1-0.1-0.1-0.1c-0.1,0-0.1,0.1-0.1,0.1
				c0,0.1,0,0.1,0,0.2c0,0.2,0,0.5,0.1,0.8c0,0.1,0.1,0.1,0.1,0.1c0.1,0,0.1-0.1,0.2-0.1C75.2,30.2,75.2,30,75.1,29.8"/>
			<path id="Fill-253" class="st34" d="M73.4,28.2c0.1,0,0.1,0,0.1-0.1s0-0.1-0.1-0.2s-0.3-0.2-0.5-0.2c-0.1,0-0.2,0.1-0.1,0.2
				C73,28,73.3,28.2,73.4,28.2"/>
			<path id="Fill-249_1_" class="st33" d="M72.5,28.7L72.5,28.7c0.3-0.1,0.5-0.1,0.6,0c0.2,0.1,0.4,0.1,0.6,0.3
				c0.1,0,0.2,0.1,0.2,0.2c0.1,0.1,0,0.2-0.2,0.2c-0.2-0.1-0.3-0.3-0.5-0.4s-0.5,0-0.6,0.1l-0.1,0.1c-0.1,0.1-0.2-0.1-0.3-0.1
				C72.2,28.8,72.3,28.7,72.5,28.7"/>
			<path id="Fill-255" class="st33" d="M72.4,28.6C72.4,28.6,72.4,28.5,72.4,28.6c0.3-0.2,0.6-0.2,0.8-0.1c0.3,0.2,0.5,0.4,0.6,0.7
				c0,0.1,0.1,0.2,0.1,0.2v0.1c0,0.2-0.4-0.1-0.4-0.3C73.5,28.8,72.9,28.5,72.4,28.6C72.4,28.7,72.4,28.7,72.4,28.6
				C72.4,28.7,72.4,28.6,72.4,28.6 M74.2,29.6v-0.1c0-0.2-0.1-0.3-0.2-0.4c-0.3-0.4-0.6-0.8-1.2-0.8c-0.2,0-0.4,0.1-0.6,0.2
				c-0.1,0.1-0.1,0.1-0.2,0.2c-0.2,0.3,0.2,0.5,0.4,0.6c0.6,0.2,1.1,0.5,1.7,0.6C74.2,29.9,74.2,29.8,74.2,29.6"/>
			<path id="Fill-257" class="st34" d="M76.7,28.3c-0.1,0-0.1,0-0.2,0c-0.2,0-0.3,0.1-0.3,0.2s0.2,0.2,0.3,0.2c0.1,0,0.1,0,0.2-0.1
				c0.1,0,0.1-0.1,0.1-0.2S76.8,28.3,76.7,28.3"/>
			<path id="Fill-267" class="st4" d="M72.4,28.6C72.4,28.5,72.4,28.5,72.4,28.6c0.3-0.2,0.6-0.2,0.8-0.1c0.3,0.2,0.5,0.4,0.6,0.7
				c0,0.1,0.1,0.2,0.1,0.2v0.1c0,0.2-0.4-0.1-0.4-0.3C73.5,28.8,72.9,28.4,72.4,28.6C72.4,28.7,72.4,28.7,72.4,28.6L72.4,28.6"/>
		</g>
		<g id="Group-67_1_">
			<g id="Group-3_2_">
				<path id="Fill-1_3_" class="st19" d="M91.4,34c0.3,0.7,0.2,2.7,0.3,3.3c0.1,0.6,0,1.2-0.2,1.7s-0.1,0.9-0.1,0.9l-1.9,0.2
					c0,0-0.4-0.1-1.1-1.3c-0.6-1.2-1.7-3.4-1.4-3.6c0.3-0.3,1.4,1,1.6,1.2l0,0l0,0c0-0.3-0.5-3.6-0.1-3.7c0.1,0,0.4,0,0.7,0.1
					c0,0,0,0,0.1,0c0.2,0.1,0.5,0.2,0.7,0.3c0,0,0,0,0.1,0c0.2,0.1,0.5,0.2,0.7,0.4c0,0,0,0,0.1,0C91.1,33.7,91.3,33.9,91.4,34"/>
			</g>
			<path id="Fill-4_1_" class="st35" d="M90,37.8L90,37.8c-0.5-0.6-1.4-1.3-1.4-1.3l0,0l0,0C88.7,36.4,89.6,37.1,90,37.8L90,37.8"/>
			<path id="Fill-6_1_" class="st35" d="M89.3,32.8l0.2,3.1l0,0l0,0l0,0L89.3,32.8C89.2,32.8,89.3,32.8,89.3,32.8"/>
			<path id="Fill-8" class="st35" d="M90.1,33.1l0.1,2.7l0,0l0,0l0,0L90.1,33.1C90,33.1,90.1,33.1,90.1,33.1"/>
			<path id="Fill-10" class="st35" d="M90.8,33.5l0.1,2.3l0,0l0,0l0,0L90.8,33.5L90.8,33.5"/>
			<path id="Fill-12" class="st36" d="M87.7,41.6c0,0,2.7,0.6,4.5,2.4l-3.5-0.8L87.7,41.6z"/>
			<path id="Fill-14_1_" class="st19" d="M91.1,44.8c0.5-0.1,0.4-0.2,0.4-0.7c-0.1-0.8-0.1-1.6-0.2-2.4c-0.1-1,0.3-3.4-1-3.6
				c-1.4-0.2-1.5,2.6-1.7,3.6c-0.1,0.4-0.2,0.8-0.3,1.3c-0.1,0.3-0.3,0.9-0.3,1.2c0.1,0.6,1.1,0.7,1.6,0.7S90.5,44.8,91.1,44.8
				L91.1,44.8"/>
			<path id="Fill-16_1_" class="st19" d="M79.2,46.3l-0.8,10.3c-1.2,0.3-2.8,0.4-4.8,0.4c-1.9,0-3.8-0.1-5.7-0.4
				c-0.2,0-0.4-0.2-0.4-0.4l0.1-9.9L79.2,46.3L79.2,46.3z"/>
			<path id="Fill-18_1_" class="st37" d="M71.6,34.1l-1.2,0.4l0.5,17.8c0,0,7.1-0.1,7.1,0s0.7-7.9,0.1-11c-0.8-3.3-2.2-6.8-2.2-6.8
				l-0.7-0.1C75,35.4,73.1,36.4,71.6,34.1"/>
			<path id="Fill-20_2_" class="st4" d="M78.4,43.2c0,0.1,0,0.3,0,0.4H71v-0.4H78.4z"/>
			<path id="Fill-22" class="st4" d="M78,41c0,0.1,0.1,0.3,0.1,0.4l0,0h-7.2V41C70.8,41,78,41,78,41z"/>
			<path id="Fill-24" class="st4" d="M71.2,45.4h7.3v0.4h-7.3V45.4z"/>
			<path id="Fill-26_2_" class="st4" d="M76.6,36.5c0.1,0.1,0.1,0.3,0.2,0.4h-6.2v-0.4C70.5,36.5,76.6,36.5,76.6,36.5z"/>
			<path id="Fill-28_1_" class="st4" d="M77.3,38.7c0,0.1,0.1,0.3,0.1,0.4h-6.8v-0.4H77.3z"/>
			<path id="Fill-30_1_" class="st4" d="M78.4,47.6c0,0.1,0,0.3,0,0.4H71v-0.4H78.4z"/>
			<path id="Fill-32_2_" class="st4" d="M71.2,49.8h7.3v0.4h-7.3V49.8z"/>
			<path id="Fill-34_1_" class="st4" d="M71.2,51.1h7.3v0.4h-7.3V51.1z"/>
			<path id="Stroke-36" class="st38" d="M71.3,53.1v1.6"/>
			<path id="Stroke-38" class="st38" d="M70.7,53.1v1.6"/>
			<path id="Fill-40_1_" class="st22" d="M71.3,34.1c0,0-3.3,0.9-4.7,2c-1.3,1.1-4.2,7.7-5.3,10.5c-1.5,4-2.3,10.1,3.1,9.2
				c5.4-0.9,6.3-1.2,6.3-1.2v-2.7l2-0.9l0.3-8.4C73,42.6,71.3,34.1,71.3,34.1z"/>
			<path id="Fill-42_1_" class="st36" d="M71.7,48.9c0,0,0.9,2.6,0.3,5.1l-1.1-3.3L71.7,48.9z"/>
			<path id="Fill-44_2_" class="st22" d="M75.2,34.4c3.2,0.3,4.6,2.8,5.7,4.1c1.1,1.4,5.3,6.8,5.3,6.8v0.1l0.3,0.4
				c0,0,0.6-1.5,1.5-3.8l3.9,1.8c-0.3,1.7-0.6,3.7-0.7,4.6c-0.3,1.9-1.1,5.8-4.4,5.8c-0.9,0-7-6.3-7-6.3v5.5h-3L77,42.5L75.2,34.4z"
				/>
			<path id="Fill-46_1_" class="st39" d="M82.1,44.6L82,51.4c0,0.1-0.9,0.3-2,0.3s-2,0-2-0.2l-0.6-6.8
				C77.5,44.7,82.1,44.6,82.1,44.6z"/>
			<path id="Fill-48_1_" class="st40" d="M78.1,46c0.3-0.1,0.2,0,0.7-0.1s0.6,0.1,1,0s0.6,0.1,0.9,0c0.4-0.1,0.5,0.1,0.8,0
				c0.1,0,0.3,0,0.4,0L81.8,51c0,0.1-0.8,0.2-1.8,0.3c-1,0-1.8,0-1.8-0.1L77.8,46C77.9,46,78,46,78.1,46"/>
			<path id="Fill-50_1_" class="st41" d="M78.8,45.9c0.5-0.1,0.6,0.1,1,0s0.6,0.1,0.9,0c0.4,0,0.5,0.1,0.8,0c0.1,0,0.3,0,0.4,0V47
				c-0.1,0-0.2,0-0.3,0c-0.3,0-0.5,0.1-0.9,0.1c-0.4-0.1-0.7,0-0.9,0.1c-0.2,0-0.4,0-0.7,0c-0.2,0-0.4,0.1-0.6,0.1
				c-0.1,0-0.3,0-0.5,0L77.8,46c0.1,0,0.2,0,0.2,0C78.4,45.9,78.3,46,78.8,45.9"/>
			<path id="Fill-52" class="st42" d="M78.6,48.5c0,0.1,0.1,0.2,0.3,0.2c0.1,0,0.2-0.1,0.2-0.3c0-0.1-0.1-0.2-0.3-0.2
				C78.7,48.2,78.6,48.3,78.6,48.5"/>
			<path id="Fill-54_1_" class="st42" d="M79.3,49C79.3,49.1,79.3,49.1,79.3,49c0.1,0.1,0.2,0,0.2,0S79.4,48.9,79.3,49
				C79.3,48.9,79.3,49,79.3,49"/>
			<path id="Fill-56_1_" class="st42" d="M80.1,49.5c0,0.2,0.2,0.4,0.4,0.4c0.2,0,0.4-0.2,0.4-0.4s-0.2-0.4-0.4-0.4
				C80.2,49.2,80,49.4,80.1,49.5"/>
			<path id="Fill-58" class="st42" d="M79.6,50.4C79.6,50.5,79.7,50.5,79.6,50.4c0.2,0.1,0.2,0,0.2,0C79.8,50.3,79.7,50.3,79.6,50.4
				C79.6,50.2,79.6,50.3,79.6,50.4"/>
			<path id="Fill-60_1_" class="st19" d="M70.2,49.8c0-0.5,0.1-0.4,0.6-0.5c0.8-0.1,1.5-0.2,2.3-0.3c0.9-0.1,1.7-0.2,2.6-0.4
				c0,0,2.2-1.6,3.1-1.8s2.3-0.3,2.3,0S79,47.5,79,47.5c0.5,0,1.1-0.1,1.6,0c0.2,0,0.6,0,0.8,0.2c0.2,0.3-0.3,1.4-0.5,1.6
				c-0.2,0.2-0.5,0.2-0.8,0.2c-0.1,0-0.5-0.1-0.6,0c0,0-1.9,1.4-3.3,0.9l-2.6,1.2c-0.4,0.2-0.7,0.4-1.1,0.5
				c-0.3,0.1-0.8,0.5-1.1,0.5c-0.6,0.1-0.9-0.9-1-1.4c-0.1-0.4-0.1-0.9-0.1-1.3C70.2,49.9,70.2,49.9,70.2,49.8"/>
			<path id="Fill-62" class="st43" d="M70.4,53.5l-1,0.1c-0.1-1.6,0.1-3.2,0.2-3.9c0-0.2,0.2-0.4,0.4-0.4l1.8-0.3
				c-0.1,2.3,0.2,4.3,0.3,5.1c0,0.2-0.1,0.5-0.4,0.5L70.1,55c-0.2,0.1-0.5-0.1-0.5-0.4c0-0.2-0.1-0.4-0.1-0.7
				C69.4,53.9,70.4,53.5,70.4,53.5z"/>
			<g id="Group-66">
				<path id="Fill-64" class="st43" d="M90.9,45l-0.4,1c-1.4-0.7-2.7-1.7-3.3-2.2c-0.2-0.1-0.2-0.3-0.1-0.5l0.6-1.7
					c1.9,1.3,3.7,2.1,4.5,2.4c0.2,0.1,0.3,0.3,0.3,0.6L92,46.2c-0.1,0.2-0.3,0.4-0.6,0.3c-0.2-0.1-0.4-0.2-0.6-0.3
					C90.8,46.1,90.9,45,90.9,45z"/>
			</g>
		</g>
	</g>
	<g id="Desk">
		<g id="Plant">
			<path id="Fill-185" class="st44" d="M59.1,57c0-0.5-0.1-1.2-0.1-1.7c0-0.8-0.1-1.6-0.1-2.5c0-0.3,0.1-0.4,0.4-0.4
				c0.4-0.1,0.7-0.1,1.1-0.1c0.2,0,0.4-0.1,0.7-0.1c0.1,0,0.3,0,0.3,0v0.2c-0.5,0-1,0-1.5,0.1c-0.1,0-0.2,0-0.3,0.1
				c0,0.1,0.1,0.1,0.2,0.1h0.1c0.7,0.1,1.4,0.2,2.1,0.2c0.5,0,1-0.1,1.5-0.2c0.1,0,0.2,0,0.2-0.1s-0.1-0.1-0.2-0.1h-1.8
				c0-0.1,0-0.1,0-0.2c0.4-0.1,0.7,0,1,0s0.6,0,0.9,0.1c1,0,0.4,4.3,0.3,4.6L59.1,57L59.1,57z"/>
			<path id="Fill-187" class="st45" d="M61.3,52.5c0,0.1,0,0.2,0,0.3s0.1,0.2,0.2,0.2c0.1,0,0.2,0,0.2-0.2c0-0.1,0-0.2,0-0.3h1.8
				c0.1,0,0.2,0,0.2,0.1s-0.1,0.1-0.2,0.1c-0.5,0.1-1,0.2-1.5,0.2c-0.7,0.1-1.4,0-2.1-0.2h-0.1c-0.1,0-0.2,0-0.2-0.1
				s0.2-0.1,0.2-0.1C60.3,52.4,60.8,52.5,61.3,52.5"/>
			<path id="Fill-189" class="st24" d="M61.6,50.4c-0.1,0.2-0.2,0.4-0.3,0.6l0,0c-0.2-0.2-0.3-0.5-0.2-0.9c0-0.1,0-0.1,0.1-0.1
				c0.3-0.1,0.4-0.4,0.6-0.6c0.1-0.1,0.1-0.2,0-0.3s-0.2,0-0.3,0c-0.1,0.1-0.2,0.2-0.3,0.3c0-0.4,0-0.5,0.3-0.6
				c0.2-0.1,0.4-0.2,0.5-0.4c0.1-0.1,0.1-0.2,0-0.2c0-0.1-0.1-0.1-0.2-0.1c-0.1,0-0.2,0.1-0.4,0.1c0-0.3,0.1-0.5,0.2-0.7
				s0.2-0.4,0.3-0.6c0-0.1,0-0.2-0.1-0.3c-0.1,0-0.2,0-0.2,0.1c-0.2,0.2-0.2,0.5-0.4,0.7c-0.1-0.1-0.1-0.2-0.1-0.3
				C61,47,61,46.8,60.9,46.7c0-0.1-0.1-0.1-0.2-0.1c-0.1,0-0.1,0.1,0,0.2c0.1,0.2,0.1,0.4,0.2,0.5c0.3,0.3,0.2,0.7,0.1,1.1
				c-0.1-0.2-0.2-0.4-0.3-0.5C60.6,48,60.5,48,60.4,48s-0.1,0.1-0.1,0.2c0,0.2,0.1,0.3,0.2,0.5c0.1,0.1,0.3,0.2,0.3,0.4
				c0,0.4-0.1,0.7,0,1.1c-0.1-0.1-0.2-0.2-0.3-0.3c-0.2-0.1-0.2-0.3-0.2-0.6c0-0.2,0-0.5-0.1-0.7c0-0.1-0.1-0.3-0.2-0.2
				s-0.2,0.2-0.2,0.3c0,0.2,0,0.4,0.1,0.6c-0.2-0.1-0.3-0.2-0.3-0.4s0-0.5-0.1-0.7c0-0.1-0.1-0.1-0.2-0.1c-0.1,0-0.1,0.1-0.1,0.2
				c0,0.2,0,0.5,0,0.8c-0.2,0-0.6-0.2-0.7,0.1c0,0.1,0.1,0.1,0.1,0.2c0.2,0.1,0.4,0.1,0.5,0.1s0.3,0,0.3,0.2
				c0.1,0.1-0.1,0.1-0.2,0.2c-0.1,0-0.1,0.1-0.1,0.2c0,0.1,0.1,0.1,0.2,0.1c0.2,0,0.4,0,0.6,0c0.1,0,0.2,0,0.3,0.1
				c0.4,0.4,0.7,1,0.8,1.6c0,0,0,0-0.1,0.1c-0.2-0.1-0.3-0.3-0.5-0.4c-0.1-0.1-0.2-0.1-0.3,0s0,0.2,0.1,0.3c0.2,0.3,0.6,0.4,0.9,0.6
				c0.2,0.1,0.1,0.2,0.1,0.4c0,0.1,0,0.2,0,0.3s0.1,0.2,0.2,0.2c0.1,0,0.2,0,0.2-0.2c0-0.1,0-0.2,0-0.3s0-0.1,0-0.2
				c0-0.1,0-0.2-0.1-0.3c0-0.1,0-0.3,0-0.4c0-0.3,0.2-0.5,0.3-0.7c0.1-0.1,0.2-0.3,0.1-0.5C61.9,50.2,61.6,50.3,61.6,50.4"/>
		</g>
		<path id="Fill-167" class="st46" d="M96.1,56.8H75.6c0,0-0.1,0-0.1-0.1c0-0.6,0.5-1.2,1.2-1.2h19.5c0,0,0.1,0,0.1,0.1L96.1,56.8
			C96.2,56.7,96.2,56.8,96.1,56.8"/>
		<path id="Fill-169" class="st22" d="M103,45.4l-2.6,10.8c-0.1,0.3-0.3,0.5-0.6,0.5H84c-0.4,0-0.7-0.4-0.6-0.8L86,45.1
			c0.1-0.3,0.3-0.5,0.6-0.5h15.8C102.8,44.6,103.1,45,103,45.4"/>
		<path id="Fill-171" class="st25" d="M100,55.7H85.9c-0.1,0-0.1-0.1-0.1-0.1c0-0.1,0.1-0.1,0.1-0.1H100
			C100.1,55.5,100.1,55.6,100,55.7C100.1,55.6,100.1,55.7,100,55.7"/>
		<path id="heart" class="st25" d="M92.5,50.8c0,0.8,1.4,1.8,1.4,1.8s1.6-1,1.8-1.8c0.2-0.9-0.8-1.1-1.5-0.5
			C93.6,49.7,92.5,49.9,92.5,50.8"/>
		<path id="Fill-175" class="st46" d="M87.2,44.6l-2.7,12.1H84c-0.4,0-0.7-0.4-0.6-0.8L86,45.1c0.1-0.3,0.3-0.5,0.6-0.5H87.2z"/>
		<path id="Fill-177" class="st47" d="M101.7,57.6v0.8c0,0.5-0.3,0.9-0.6,0.9H56c-0.4,0-0.6-0.4-0.6-0.9v-0.8c0-0.5,0.3-0.9,0.6-0.9
			h45.1C101.4,56.8,101.7,57.1,101.7,57.6"/>
		<path id="Fill-179" class="st48" d="M98.6,61.5H59.8c-1.2,0-2.2-1-2.2-2.2h43C100.7,60.5,99.8,61.5,98.6,61.5"/>
		<path id="Fill-181" class="st47" d="M57.9,91.9l7.3-30.4h-2.6l-7.3,30.4C55.3,91.9,57.9,91.9,57.9,91.9z"/>
		<path id="Fill-183" class="st47" d="M101.2,91.9l-7.3-30.4h2.6l7.3,30.4C103.7,91.9,101.2,91.9,101.2,91.9z"/>
	</g>
</g>
</svg>
